<svg width="166" height="75" viewBox="0 0 166 75" fill="none" xmlns="http://www.w3.org/2000/svg">
<path d="M32.2349 35.7594C33.9381 31.0856 35.5521 26.507 37.3223 21.9581C37.6421 21.1435 38.185 20.0969 39.8734 20.4359C40.4826 20.5098 41.0482 20.7331 41.4918 21.075C41.9355 21.417 42.2354 21.8606 42.3501 22.3446C43.0567 25.9124 42.6476 29.5158 42.9154 33.0479C43.3616 38.8693 42.1196 44.7383 43.7484 50.5061C43.9694 51.0705 44.0002 51.6715 43.8377 52.2484C43.4286 53.1522 45.1987 54.8529 42.4245 54.9183C40.2453 54.9658 40.4089 53.5447 40.1932 52.4744C39.0401 47.0886 38.5419 41.6263 38.7057 36.1638C38.7057 35.3788 38.7057 34.5939 38.7057 33.4939C36.4744 34.9804 36.6529 37.0616 35.7306 38.6969C34.9868 40.0169 34.4885 41.7949 32.4134 41.7414C30.5763 41.6997 29.5573 40.3975 28.94 38.8217C27.7054 35.6821 26.0468 32.6495 24.2692 28.9688C22.5139 33.4106 23.1907 37.466 22.3577 41.3548C21.6585 44.5837 21.8965 47.8957 20.8701 51.1186C20.5875 52.0165 20.0669 52.5695 18.9066 52.5219C17.1959 52.4625 17.8951 51.3327 17.9174 50.7381C18.2222 41.6011 19.2332 32.4879 20.9445 23.4506C21.1082 22.5587 21.5321 21.2029 23.213 21.0721C24.8939 20.9413 25.4443 21.9581 26.0914 22.963C28.107 26.2216 29.0665 29.7656 30.4945 33.1847C30.8086 34.1419 31.4054 35.0249 32.2349 35.7594Z" fill="#212121"/>
<path d="M47.6384 41.8544C47.1847 36.7287 48.7466 31.8944 51.4762 27.3574C53.053 24.747 55.3141 22.4755 59.561 22.1663C63.1385 21.9106 66.4631 24.1286 66.1879 26.9233C66.1358 27.518 66.3292 28.2137 65.1838 28.1483C64.4401 28.1067 63.7558 28.3921 63.1385 27.4466C61.227 24.5389 59.5982 24.4735 57.523 27.1077C53.6108 32.0788 51.439 37.3828 52.7406 43.3886C53.172 45.3687 52.5175 47.4677 53.5439 49.43C54.6595 51.5587 56.1173 51.8858 58.1404 50.3397C59.4494 49.3408 60.8626 48.3894 61.5914 46.9741C61.8964 46.3795 61.822 45.4281 63.3691 45.7849C64.6111 46.0882 64.7376 46.6412 64.7227 47.5034C64.6706 49.8819 60.3791 54.7221 57.6272 55.406C53.9084 56.3157 49.2524 53.0572 48.3152 49.097C47.7236 46.7136 47.4963 44.2816 47.6384 41.8544Z" fill="#212121"/>
<path d="M0 49.531C0.409071 43.1566 1.0264 36.7882 0.743766 30.3959C0.676827 28.9331 1.76272 27.6428 1.55447 26.1087C1.4887 25.5298 1.7001 24.9525 2.14599 24.4934C2.59188 24.0343 3.23905 23.7275 3.95684 23.635C5.33281 23.4626 6.18814 24.5924 6.58233 25.5438C9.55411 32.066 12.0743 38.714 14.1316 45.4578C14.6596 47.2417 15.1728 48.9839 15.6191 50.7678C15.8422 51.6717 15.7158 52.7658 14.5183 53.0274C12.8597 53.3901 12.4358 51.9214 12.2349 51.19C11.8275 49.4133 11.243 47.6655 10.4871 45.9632C9.92928 44.8216 9.95159 43.2101 7.69798 43.7037C5.76419 44.1258 3.68908 44.6967 3.72626 46.879C3.76345 49.311 3.84527 51.7371 3.05688 54.1453C2.78169 54.9956 2.81888 55.5665 1.4206 55.5665C-0.171064 55.5665 0.0223121 54.7875 0.0223121 54.0085C-9.07419e-07 52.5041 0 51.0176 0 49.531Z" fill="#212121"/>
<path d="M4.55176 42.0982V32.0727L5.15421 31.9062C6.16574 34.5821 7.45247 37.2103 8.0698 39.9456C8.37474 41.3014 6.12111 41.2895 4.55176 42.0982Z" fill="#E7F2EE"/>
<path d="M113.284 4.02664C113.214 7.47216 113.211 10.7826 113.785 14.0354C114.106 15.827 113.048 16.9104 112.078 18.0389C110.745 19.5703 110.046 21.4169 109.259 23.2185C108.441 25.0901 107.705 26.9968 106.983 28.906C106.098 31.2505 105.632 33.7027 105.243 36.1623C104.899 38.5418 104.823 40.9522 105.015 43.3486C105.469 50.0395 107.411 56.1223 112.033 61.2768C114.913 64.4921 118.134 67.202 121.896 69.1788C124.987 70.8052 128.323 71.9612 131.87 72.299C133.123 72.4166 134.339 72.827 135.63 72.7994C138.136 72.7494 140.532 72.1939 142.946 71.6034C146.957 70.6175 150.629 68.9135 153.787 66.2712C156.945 63.6289 159.645 60.6513 160.953 56.4951C162.096 52.8645 163.078 49.2087 163.547 45.468C163.911 42.5506 163.804 39.5939 163.231 36.7103C162.783 34.4458 162.537 32.1413 162.106 29.8718C161.522 26.7941 160.818 23.7289 159.517 20.8639C158.92 19.5578 158.637 18.0965 157.699 16.9405C157.646 16.8516 157.611 16.7525 157.598 16.6496C157.584 16.5466 157.593 16.4421 157.622 16.3424C158.351 13.9754 157.491 11.6633 157.406 9.33629C157.336 7.36457 157.028 5.42286 156.87 3.46615C156.832 3.00574 156.79 2.48529 156.396 2.32015C156.003 2.155 155.782 2.67796 155.561 2.94569C153.914 4.89315 152.156 6.74527 150.298 8.49306C149.631 9.13362 148.957 9.77668 148.27 10.3947C148.102 10.5449 147.751 10.9978 147.318 10.6199C146.884 10.2421 147.152 9.88428 147.338 9.52896C147.431 9.34741 147.548 9.17911 147.686 9.02853C149.172 7.45465 150.666 5.89328 152.153 4.3219C153.333 3.0708 154.504 1.81971 155.684 0.56861C156.489 -0.284638 157.113 -0.182049 157.632 0.906406C158.364 2.43525 158.444 4.13674 158.557 5.75315C158.777 8.8859 159.614 11.9861 159.517 15.0913C159.426 18.0715 161.224 20.1608 162.161 22.638C163.252 25.4032 164.058 28.2722 164.567 31.2005C165.159 34.8987 165.57 38.6345 165.821 42.3703C165.953 44.2194 165.452 46.081 165.129 47.9276C164.705 50.3498 164.319 52.7719 163.374 55.0639C162.186 57.9339 160.843 60.6713 158.92 63.1885C156.396 66.4939 153.195 68.8735 149.611 70.7351C146.501 72.3638 143.121 73.4183 139.635 73.8478C138.515 73.9855 137.364 73.8879 136.234 74.2407C135.216 74.5585 134.108 74.1056 133.06 73.9905C130.662 73.7102 128.25 73.3824 125.947 72.5492C122.131 71.2125 118.579 69.2172 115.455 66.654C112.929 64.5855 110.686 62.1955 108.782 59.5453C106.456 56.2399 104.719 52.5592 104.188 48.378C103.872 45.8758 103.614 43.3736 103.263 40.8714C103.065 39.4752 103.413 38.069 103.561 36.6903C103.789 34.5784 103.93 32.4165 104.742 30.3923C105.727 27.9426 106.747 25.5105 107.787 23.0833C108.91 20.456 110.577 18.2066 112.169 15.8745C112.906 14.7936 112.121 13.3723 112.169 12.0912C112.169 11.856 112.011 11.6158 112.021 11.3831C112.154 8.64319 111.61 5.92831 111.753 3.1884C111.825 1.83222 112.63 1.29425 113.775 2.0349C114.796 2.70432 115.758 3.45759 116.653 4.28687C118.846 6.28862 121.26 8.07019 123.21 10.3322C123.669 10.8626 124.095 10.5549 124.486 10.4122C127.015 9.50895 129.649 9.14112 132.286 8.73326C134.191 8.43801 136.088 8.5381 137.991 8.51808C140.497 8.49056 142.924 9.06356 145.357 9.54898C145.859 9.64907 146.626 9.91931 146.518 10.6049C146.418 11.228 145.706 10.9952 145.24 11.0053C143.676 11.0353 142.219 10.4147 140.68 10.2396C138.239 9.96184 135.843 9.6891 133.346 9.93932C130.539 10.2171 127.794 10.7225 125.042 11.2655C124.763 11.2923 124.493 11.3776 124.25 11.5157C123.024 12.419 122.13 11.6458 121.312 10.8977C118.753 8.55061 116.104 6.30364 113.284 4.02664Z" fill="#212121"/>
<path d="M141.343 56.0263C138.826 55.952 136.53 55.3748 134.863 53.2691C134.547 52.8702 134.213 52.8529 133.961 53.4351C132.929 55.8157 130.795 56.6233 128.477 56.9726C125.571 57.4086 121.91 55.5804 120.537 53.0684C120.23 52.5085 119.724 51.5548 120.213 51.203C120.833 50.7571 121.232 51.7356 121.561 52.1939C124.435 56.1229 129.21 55.4887 132.338 52.8479C132.929 52.4045 133.43 51.855 133.816 51.2278C134.158 50.606 134.606 50.6555 135.035 51.265C137.029 54.0915 140.723 54.6687 143.584 53.5639C145.309 52.8975 146.378 51.5325 146.959 49.8331C147.138 49.3104 147.375 48.7852 147.851 48.9066C148.459 49.0627 148.631 49.7315 148.472 50.3385C147.559 53.7967 145.274 56.1551 141.343 56.0263Z" fill="#212121"/>
<path d="M128.156 35.9009C128.202 39.0983 126.978 41.6462 124.126 42.9476C120.13 44.7711 115.009 43.8044 113.623 38.5987C112.506 34.4071 115.501 30.0582 120.099 29.1714C123.8 28.457 127.001 30.4653 127.988 33.9325C128.192 34.6494 127.965 35.3239 128.156 35.9009Z" fill="#212121"/>
<path d="M155.148 36.2398C155.131 40.839 151.923 43.8288 148.068 43.7961C143.579 43.7608 140.248 40.7408 140.384 36.6126C140.55 31.5751 143.788 28.875 148.612 28.5299C152.071 28.2831 155.148 32.1015 155.148 36.2398Z" fill="#212121"/>
<path d="M133.651 42.7778C136.2 42.8257 136.915 44.1609 135.788 46.5786C134.465 49.4192 133.655 49.5867 131.481 47.3765C130.895 46.786 130.269 46.2275 129.867 45.4322C129.465 44.637 129.743 43.605 130.565 43.3045C131.602 42.9161 132.744 43.238 133.651 42.7778Z" fill="#212121"/>
<path d="M152.819 48.8759C151.972 48.8759 151.122 48.9194 150.283 48.847C150.051 48.8253 149.614 48.7674 149.553 48.3453C149.482 47.8629 149.951 47.8171 150.186 47.764C151.904 47.3945 153.672 47.2781 155.427 47.4191C157.154 47.5276 158.897 47.4432 160.635 47.4505C161.125 47.4505 161.791 47.3274 161.768 48.0317C161.75 48.6227 161.119 48.6661 160.64 48.6444C158.022 48.5262 155.427 48.8494 152.819 48.8759Z" fill="#212121"/>
<path d="M109.207 43.3082C112.027 43.4632 114.679 44.4113 117.381 45.1861C117.731 45.2859 118.149 45.2203 118.418 45.4488C118.687 45.6773 119.194 45.8585 118.903 46.326C118.731 46.5886 118.59 46.9826 117.963 46.8093C115.572 46.1422 113.124 45.7088 110.731 45.0495C110.157 44.8893 109.602 44.9629 109.06 44.821C108.642 44.7107 108.202 44.54 108.314 43.8887C108.403 43.3135 108.766 43.2399 109.207 43.3082Z" fill="#212121"/>
<path d="M151.932 50.434C154.467 50.8229 157.053 50.8616 159.526 51.6988C159.884 51.8199 160.322 51.8456 160.228 52.3274C160.162 52.5283 160.035 52.6996 159.867 52.814C159.699 52.9284 159.501 52.9793 159.303 52.9585C156.647 52.2526 153.842 52.7756 151.22 51.7683C150.74 51.5854 149.997 51.5906 150.059 51.0393C150.134 50.3902 150.879 50.3876 151.451 50.434C151.612 50.434 151.771 50.434 151.932 50.434Z" fill="#212121"/>
<path d="M148.527 54.4489C149.571 53.5656 150.752 54.1576 151.699 54.4191C154.015 55.0546 156.393 55.4217 158.74 55.9655C159.207 56.0733 159.891 56.0825 159.698 56.7088C159.549 57.1952 159.072 57.0094 158.56 56.9658C155.663 56.7157 152.906 55.993 150.129 55.2978C149.504 55.1753 148.942 54.8773 148.527 54.4489Z" fill="#212121"/>
<path d="M111.838 48.4308C113.077 48.2422 114.568 48.6358 116.086 48.6358C116.242 48.6374 116.394 48.6804 116.52 48.7588C116.846 48.9822 117.608 48.8879 117.438 49.466C117.268 50.044 116.562 49.9169 116.115 49.837C114.194 49.4906 112.229 49.755 110.304 49.4557C109.993 49.4065 109.636 49.5111 109.345 49.4311C108.924 49.3184 108.254 49.2917 108.298 48.7998C108.342 48.3078 108.958 48.4308 109.371 48.4308C110.097 48.4308 110.823 48.4308 111.838 48.4308Z" fill="#212121"/>
<path d="M111.262 53.9715C110.931 53.9942 110.458 54.0244 110.352 53.4986C110.219 52.8522 110.803 52.8396 111.188 52.7214C113.072 52.1328 114.961 51.5584 116.855 50.9983C117.261 50.8776 117.729 50.86 117.914 51.3329C118.099 51.8058 117.82 52.0321 117.374 52.2485C116.505 52.656 112.227 53.9539 111.262 53.9715Z" fill="#212121"/>
<path d="M135.19 23.426C134.483 21.254 134.848 19.0235 135.086 16.8057C135.447 18.9827 135.216 21.2184 135.19 23.426Z" fill="#212121"/>
<path d="M134.268 24.9537C132.866 23.4178 131.819 21.7178 130.704 19.8611C132.078 20.3966 134.145 23.3951 134.268 24.9537Z" fill="#212121"/>
<path d="M136.814 25.4631C137.716 24.7679 138.495 23.8411 139.87 23.426C138.989 24.577 137.942 25.0633 136.814 25.4631Z" fill="#212121"/>
<path d="M132.741 24.9536C131.663 24.903 131.02 24.6664 130.194 24.5119C131.213 24.3793 131.34 24.4012 132.741 24.9536Z" fill="#212121"/>
<path d="M132.231 26.73C132.85 27.0109 133.488 25.9256 134.268 26.8885C133.477 26.6316 132.836 27.3519 132.231 26.73Z" fill="#212121"/>
<path d="M137.833 21.8981C137.829 21.5141 137.914 21.1335 138.085 20.7822C138.256 20.4308 138.507 20.1167 138.823 19.8611C139.019 20.7349 138.164 21.2201 137.833 21.8981Z" fill="#212121"/>
<path d="M120.339 42.2468C117.016 42.2468 115.073 40.2297 114.926 37.0695C114.711 32.3878 118.032 30.6869 121.61 30.0768C123.184 29.8078 125.349 31.3642 126.044 33.1573C126.949 35.4956 126.84 37.844 125.471 39.9707C124.294 41.7935 122.413 42.3962 120.339 42.2468Z" fill="#E7F2EE"/>
<path d="M147.74 42.2686C144.38 42.1257 141.791 39.7705 141.911 36.3257C142.053 32.3783 144.534 29.7118 148.475 29.5408C151.414 29.4133 153.694 32.5722 153.618 36.4559C153.55 39.7169 150.973 42.2686 147.74 42.2686Z" fill="#E7F2EE"/>
<path d="M135.287 44.8838C134.982 45.6478 134.71 46.4256 134.36 47.1678C134.229 47.4417 133.863 47.3896 133.655 47.228C132.734 46.4968 131.831 45.741 130.933 44.9796C130.868 44.9272 130.814 44.8614 130.774 44.7865C130.735 44.7115 130.711 44.6291 130.704 44.5442C130.738 44.2292 131.027 44.3169 131.238 44.3169C132.389 44.3169 133.537 44.3169 134.689 44.3169C135.068 44.3169 135.268 44.4237 135.287 44.8838Z" fill="#E7F2EE"/>
<path d="M125.607 36.3553C125.581 38.3452 124.813 39.8452 122.851 40.7372C120.782 41.6693 118.796 41.2849 117.364 39.9533C115.036 37.795 115.691 34.5789 118.328 32.6668C119.432 31.8653 120.756 31.1342 122.246 31.893C122.626 32.0864 123.399 32.0714 123.207 32.79C123.07 33.305 122.82 33.7673 122.119 33.9106C121.232 34.0915 120.464 34.3905 120.11 35.4633C119.807 36.3829 120.291 36.511 120.86 36.6317C121.78 36.8251 122.465 36.3528 123.011 35.6794C123.135 35.5261 123.174 35.3075 123.285 35.1417C123.657 34.5814 124.061 33.9131 124.86 34.1769C125.519 34.398 125.636 35.0839 125.607 35.7296C125.607 35.9382 125.607 36.1467 125.607 36.3553Z" fill="#212121"/>
<path d="M152.574 36.5044C152.863 39.5647 150.833 40.6773 148.988 41.1416C146.943 41.6603 144.576 40.2546 143.77 38.2394C142.921 36.1127 143.752 33.7111 145.509 32.3132C146.695 31.3692 147.936 31.5922 149.186 31.6078C149.888 31.6078 150.519 32.9357 150.293 33.6255C150.146 34.0716 149.852 33.9523 149.601 33.8201C148.441 33.2158 148.109 34.165 147.795 34.9067C147.739 35.0382 147.714 35.1809 147.721 35.3239C147.728 35.4669 147.766 35.6064 147.834 35.7317C147.902 35.8569 147.997 35.9646 148.112 36.0464C148.227 36.1282 148.358 36.1819 148.496 36.2035C149.257 36.341 150.03 36.2632 150.326 35.205C150.511 34.5463 150.833 33.7085 151.761 33.9446C152.534 34.1443 152.577 34.9042 152.574 35.6018C152.574 35.9001 152.574 36.2035 152.574 36.5044Z" fill="#212121"/>
<rect x="84.2036" y="13" width="1" height="51" fill="#212121"/>
</svg>
