<svg width="330" height="219" viewBox="0 0 330 219" fill="none" xmlns="http://www.w3.org/2000/svg">
<path d="M160.349 95.7557C168.821 66.6742 176.85 38.1847 185.655 9.88018C187.246 4.81126 189.947 -1.70062 198.345 0.408346C201.376 0.868217 204.189 2.2579 206.396 4.3854C208.603 6.51291 210.095 9.27324 210.666 12.2851C214.18 34.4848 212.146 56.9064 213.478 78.884C215.697 115.106 209.519 151.625 217.621 187.514C218.721 191.026 218.874 194.765 218.065 198.355C216.03 203.979 224.836 214.561 211.036 214.968C200.195 215.264 201.009 206.421 199.936 199.761C194.2 166.249 191.722 132.261 192.537 98.2717C192.537 93.3878 192.537 88.5039 192.537 81.659C181.437 90.9088 182.325 103.859 177.738 114.033C174.038 122.247 171.559 133.31 161.237 132.977C152.098 132.718 147.029 124.615 143.959 114.81C137.817 95.2747 129.566 76.4051 120.724 53.5025C111.992 81.141 115.359 106.375 111.215 130.572C107.738 150.663 108.922 171.271 103.816 191.325C102.41 196.912 99.8202 200.353 94.0485 200.057C85.539 199.687 89.0168 192.657 89.1278 188.957C90.644 132.104 95.673 75.3994 104.186 19.167C105 13.6171 107.109 5.18127 115.47 4.36728C123.832 3.55329 126.57 9.88019 129.788 16.1331C139.815 36.4087 144.588 58.4604 151.691 79.735C153.254 85.6911 156.223 91.1852 160.349 95.7557Z" fill="#212121"/>
<path d="M236.971 133.68C234.714 101.787 242.484 71.7062 256.062 43.4756C263.905 27.2329 275.153 13.0991 296.278 11.1752C314.074 9.58421 330.612 23.385 329.244 40.7747C328.985 44.4746 329.947 48.8035 324.249 48.3966C320.549 48.1376 317.145 49.9135 314.075 44.0306C304.566 25.9379 296.464 25.5309 286.141 41.9217C266.68 72.8531 255.877 105.857 262.352 143.226C264.497 155.547 261.242 168.608 266.347 180.817C271.897 194.063 279.149 196.098 289.212 186.478C295.724 180.262 302.753 174.342 306.379 165.537C307.896 161.837 307.526 155.917 315.221 158.137C321.4 160.024 322.029 163.465 321.955 168.83C321.696 183.629 300.348 213.747 286.659 218.002C268.16 223.663 245 203.387 240.338 178.745C237.395 163.915 236.264 148.783 236.971 133.68Z" fill="#212121"/>
<path d="M0.00012207 181.446C2.035 141.783 5.10582 102.157 3.6999 62.3823C3.36692 53.2804 8.76859 45.2516 7.73265 35.7057C7.40549 32.1038 8.45708 28.5118 10.6751 25.655C12.8931 22.7983 16.1124 20.8894 19.683 20.314C26.5276 19.241 30.7823 26.2709 32.7432 32.1908C47.526 72.7737 60.0626 114.14 70.296 156.102C72.9228 167.202 75.4757 178.042 77.6956 189.142C78.8055 194.766 78.1766 201.574 72.2199 203.202C63.9694 205.459 61.8605 196.32 60.8615 191.769C58.8346 180.714 55.9272 169.838 52.1671 159.247C49.3922 152.143 49.5032 142.116 38.2929 145.187C28.6735 147.814 18.351 151.366 18.536 164.945C18.721 180.077 19.128 195.173 15.2062 210.158C13.8373 215.449 14.0223 219.001 7.06672 219.001C-0.850815 219.001 0.111111 214.154 0.111111 209.307C0.000117556 199.946 0.00012207 190.696 0.00012207 181.446Z" fill="#212121"/>
<path d="M22.6428 135.197V72.8161L25.6396 71.7802C30.6713 88.4299 37.072 104.784 40.1429 121.803C41.6598 130.239 30.4494 130.165 22.6428 135.197Z" fill="#FFF5F8"/>
</svg>
