<?xml version="1.0" standalone="no"?>
<!DOCTYPE svg PUBLIC "-//W3C//DTD SVG 20010904//EN"
 "http://www.w3.org/TR/2001/REC-SVG-20010904/DTD/svg10.dtd">
<svg version="1.0" xmlns="http://www.w3.org/2000/svg"
 width="700.000000pt" height="700.000000pt" viewBox="0 0 700.000000 700.000000"
 preserveAspectRatio="xMidYMid meet">
<metadata>
Created by potrace 1.14, written by Peter Selinger 2001-2017
</metadata>
<g transform="translate(0.000000,700.000000) scale(0.100000,-0.100000)"
fill="#000000" stroke="none">
<path d="M6037 6274 c-1 -1 -27 -5 -58 -7 -31 -3 -76 -11 -100 -17 -24 -7 -52
-14 -62 -16 -136 -26 -442 -177 -662 -328 -139 -95 -343 -254 -416 -325 -9 -9
-52 -50 -95 -92 -217 -210 -397 -433 -620 -773 -40 -61 -166 -282 -219 -383
-36 -70 -50 -89 -59 -80 -13 13 -173 192 -221 246 -243 276 -464 463 -745 633
-417 251 -833 372 -1250 362 -80 -2 -157 -6 -172 -8 -90 -14 -122 -20 -209
-41 -374 -91 -766 -344 -946 -611 -137 -202 -198 -400 -197 -639 0 -143 4
-184 29 -307 3 -16 7 -40 10 -55 10 -50 67 -228 76 -237 5 -6 9 -17 9 -25 0
-29 124 -264 196 -373 90 -134 187 -251 309 -373 78 -79 117 -114 210 -194 66
-56 260 -195 455 -324 47 -32 90 -60 95 -65 6 -4 35 -23 65 -42 30 -19 56 -38
58 -42 2 -5 8 -8 13 -8 5 0 53 -29 107 -64 86 -56 233 -150 287 -183 11 -6 92
-56 180 -109 88 -54 190 -117 228 -141 37 -24 71 -43 76 -43 5 0 11 -4 13 -8
2 -5 34 -26 71 -48 82 -47 56 -31 442 -261 170 -102 321 -193 335 -201 14 -9
149 -91 300 -182 288 -174 326 -190 420 -183 118 8 177 54 398 311 135 157
599 708 780 927 56 68 117 141 122 145 3 3 25 30 50 60 25 30 49 60 55 66 5 6
28 32 50 59 22 27 67 81 100 120 33 39 76 90 95 114 19 24 40 48 45 55 9 9 81
97 249 306 34 43 198 264 241 325 27 39 52 72 55 75 13 12 162 245 224 350 37
63 71 122 77 130 27 45 153 301 196 400 92 211 179 481 219 675 2 11 6 31 9
45 32 156 38 220 39 385 0 138 -4 200 -18 265 -10 47 -19 92 -21 100 -14 66
-97 230 -153 300 -133 169 -341 291 -552 326 -43 7 -207 13 -213 8z"/>
</g>
</svg>
